<svg width="816" height="253" viewBox="0 0 816 253" fill="none" xmlns="http://www.w3.org/2000/svg">
<g clip-path="url(#clip0)">
<path d="M148 93.7507C148 92.4912 147.544 91.2832 146.731 90.3925C145.918 89.5019 144.816 89.0015 143.667 89.0015H130.667V74.7515C130.668 74.1274 130.556 73.5094 130.338 72.9328C130.12 72.3562 129.801 71.8323 129.398 71.391C128.996 70.9498 128.518 70.5998 127.992 70.3611C127.466 70.1224 126.902 69.9997 126.333 70H65.6673C65.0982 69.9997 64.5346 70.1223 64.0087 70.3609C63.4828 70.5994 63.0049 70.9492 62.6024 71.3902C62.1998 71.8313 61.8805 72.3549 61.6627 72.9313C61.4448 73.5076 61.3327 74.1254 61.3327 74.7493V88.9993H48.3327C47.7635 88.9993 47.1999 89.1222 46.6742 89.361C46.1484 89.5998 45.6706 89.9498 45.2683 90.3911C44.8659 90.8323 44.5468 91.3561 44.3292 91.9326C44.1116 92.5091 43.9997 93.1269 44 93.7507C44 104.267 47.8167 123.295 61.5622 126.481C63.3334 143.877 75.8602 157.738 91.6653 159.913V174.493H83C81.8498 174.493 80.7468 174.993 79.9335 175.885C79.1202 176.776 78.6633 177.986 78.6633 179.246C78.6633 180.507 79.1202 181.716 79.9335 182.608C80.7468 183.499 81.8498 184 83 184H109C110.149 184 111.252 183.5 112.064 182.609C112.877 181.718 113.334 180.51 113.334 179.25C113.334 177.99 112.877 176.781 112.064 175.891C111.252 175 110.149 174.499 109 174.499H100.333V159.92C116.14 157.744 128.665 143.888 130.436 126.488C144.183 123.293 148 104.265 148 93.7507ZM53.0005 98.5H61.3286V116.433C55.5984 113.336 53.6586 104.187 53.0005 98.5ZM130.665 116.433V98.5H138.993C138.341 104.189 136.402 113.336 130.667 116.433H130.665Z" fill="black"/>
<path d="M91.2893 95.125V107.65H106.014V111.6H91.2893V127H86.4393V91.175H108.514V95.125H91.2893Z" fill="white"/>
</g>
<path d="M193.76 168V84H237.56V98.4H210.2V119.4H233.96V133.32H210.2V168H193.76ZM242.85 168V106.68H254.25L257.25 113.16C260.45 108.84 264.49 106.68 269.37 106.68H274.05V122.76H258.81V168H242.85ZM306.427 119.28H297.427C296.227 120.72 295.227 122.72 294.427 125.28C293.707 127.84 293.347 130.32 293.347 132.72H310.507C310.667 130.32 310.347 127.84 309.547 125.28C308.747 122.64 307.707 120.64 306.427 119.28ZM322.747 155.4V168H292.267C286.667 164.24 282.707 159.6 280.387 154.08C278.147 148.48 277.027 142.84 277.027 137.16C277.027 124.04 281.987 113.88 291.907 106.68H311.347C316.707 110.6 320.347 114.76 322.267 119.16C324.187 123.56 325.147 128 325.147 132.48C325.147 136.96 324.787 140.8 324.067 144H294.187C294.427 145.84 295.107 147.96 296.227 150.36C297.427 152.68 298.707 154.36 300.067 155.4H322.747ZM360.919 119.28H351.919C350.719 120.72 349.719 122.72 348.919 125.28C348.199 127.84 347.839 130.32 347.839 132.72H364.999C365.159 130.32 364.839 127.84 364.039 125.28C363.239 122.64 362.199 120.64 360.919 119.28ZM377.239 155.4V168H346.759C341.159 164.24 337.199 159.6 334.879 154.08C332.639 148.48 331.519 142.84 331.519 137.16C331.519 124.04 336.479 113.88 346.399 106.68H365.839C371.199 110.6 374.839 114.76 376.759 119.16C378.679 123.56 379.639 128 379.639 132.48C379.639 136.96 379.279 140.8 378.559 144H348.679C348.919 145.84 349.599 147.96 350.719 150.36C351.919 152.68 353.199 154.36 354.559 155.4H377.239ZM434.131 168H422.011L419.851 163.68C418.091 165.28 416.411 166.4 414.811 167.04C413.291 167.68 410.971 168 407.851 168H397.411C393.891 164.64 391.091 160.24 389.011 154.8C387.011 149.36 386.011 143.28 386.011 136.56C386.011 129.76 387.011 124 389.011 119.28C391.091 114.56 394.011 110.36 397.771 106.68H408.091C412.331 106.68 415.691 107.8 418.171 110.04V84H434.131V168ZM418.171 119.28H406.651C403.691 124.32 402.211 130.52 402.211 137.88C402.211 145.16 403.651 151 406.531 155.4H418.171V119.28ZM480.89 168H454.73C446.73 160.56 442.73 150.4 442.73 137.52C442.73 131.04 443.61 125.4 445.37 120.6C447.21 115.8 450.09 111.16 454.01 106.68H482.09C486.25 111.48 489.09 116.16 490.61 120.72C492.13 125.2 492.89 130.8 492.89 137.52C492.89 150.4 488.89 160.56 480.89 168ZM463.25 155.4H472.37C475.25 149.8 476.69 143.44 476.69 136.32C476.69 129.2 475.21 123.52 472.25 119.28H463.25C460.37 123.36 458.93 129.16 458.93 136.68C458.93 144.12 460.37 150.36 463.25 155.4ZM528.12 106.68H536.64L539.64 110.88C541.32 109.36 542.92 108.28 544.44 107.64C546.04 107 548.4 106.68 551.52 106.68H564.84C568.36 111.16 570.76 115.64 572.04 120.12C573.32 124.6 573.96 130.2 573.96 136.92V168H558V135.72C558 128.36 556.88 122.88 554.64 119.28H543.12C544.88 122.72 545.76 127.4 545.76 133.32V168H529.8V135.72C529.8 128.12 528.76 122.64 526.68 119.28H517.44V168H501.48V106.68H513.96L516.12 111C517.88 109.4 519.52 108.28 521.04 107.64C522.64 107 525 106.68 528.12 106.68ZM583.746 106.68H596.586L598.386 111C600.146 109.4 601.786 108.28 603.306 107.64C604.906 107 607.266 106.68 610.386 106.68H621.186C624.546 109.96 627.186 114.2 629.106 119.4C631.026 124.6 631.986 130.32 631.986 136.56C631.986 149.92 627.986 160.4 619.986 168H609.786C605.546 168 602.186 166.88 599.706 164.64V186H583.746V106.68ZM599.706 155.4H611.226C614.186 150.36 615.666 144.24 615.666 137.04C615.666 129.84 614.146 123.92 611.106 119.28H599.706V155.4ZM656.422 84V168H640.582V84H656.422ZM695.635 140.28H682.795C681.115 142.36 680.275 144.96 680.275 148.08C680.275 151.2 681.155 153.64 682.915 155.4H695.635V140.28ZM669.835 106.68H699.595C704.395 109.56 707.555 112.88 709.075 116.64C710.595 120.32 711.355 125.36 711.355 131.76V149.76C711.355 156.4 711.515 162.48 711.835 168H698.155L695.995 163.68C692.875 166.56 688.475 168 682.795 168H675.235C668.435 163.52 665.035 157.08 665.035 148.68C665.035 140.2 668.515 133.52 675.475 128.64H686.755C689.875 128.64 692.795 129.6 695.515 131.52V125.52C695.515 122.4 694.155 120.32 691.435 119.28H669.835V106.68ZM721.316 134.28V106.68H737.276V134.4C737.276 141.36 738.676 147.16 741.476 151.8H748.556C751.196 147.24 752.516 141.44 752.516 134.4V106.68H768.476V133.44C768.476 139.44 767.676 144.72 766.076 149.28C764.556 153.84 762.036 159 758.516 164.76L750.476 177.84C749.036 180.32 747.516 182.16 745.916 183.36C744.316 184.56 742.236 185.44 739.676 186H720.716V173.4H733.676C735.356 172.92 736.756 172.08 737.876 170.88C738.996 169.68 740.156 167.96 741.356 165.72L742.076 164.4H733.796C729.956 161.28 726.916 157.08 724.676 151.8C722.436 146.44 721.316 140.6 721.316 134.28Z" fill="black"/>
<defs>
<clipPath id="clip0">
<rect width="104" height="114" fill="white" transform="translate(44 70)"/>
</clipPath>
</defs>
</svg>
